<svg width="5357" height="1618" viewBox="0 0 5357 1618" fill="none" xmlns="http://www.w3.org/2000/svg">
<rect y="767" width="1618" height="85" fill="#FF0000"/>
<rect x="1016.1" y="1358.1" width="1618" height="85" transform="rotate(-45 1016.1 1358.1)" fill="url(#paint0_linear_1920_45)"/>
<path d="M1076.1 214L2220.2 1358.1L2160.1 1418.2L1016 274.104L1076.1 214Z" fill="url(#paint1_linear_1920_45)"/>
<rect x="1661.1" width="1618" height="85" transform="rotate(90 1661.1 0)" fill="url(#paint2_linear_1920_45)"/>
<circle cx="1618" cy="809" r="70" fill="#000BFF"/>
<path d="M2415.8 1021C2362.47 1021 2319.13 1009 2285.8 985C2252.47 961 2232.2 927.267 2225 883.8L2323.4 868.6C2328.47 889.933 2339.67 906.733 2357 919C2374.33 931.267 2396.2 937.4 2422.6 937.4C2445.8 937.4 2463.67 932.867 2476.2 923.8C2489 914.467 2495.4 901.8 2495.4 885.8C2495.4 875.933 2493 868.067 2488.2 862.2C2483.67 856.067 2473.53 850.2 2457.8 844.6C2442.07 839 2417.93 831.933 2385.4 823.4C2349.13 813.8 2320.33 803.533 2299 792.6C2277.67 781.4 2262.33 768.2 2253 753C2243.67 737.8 2239 719.4 2239 697.8C2239 670.867 2246.07 647.4 2260.2 627.4C2274.33 607.4 2294.07 592.067 2319.4 581.4C2344.73 570.467 2374.6 565 2409 565C2442.6 565 2472.33 570.2 2498.2 580.6C2524.33 591 2545.4 605.8 2561.4 625C2577.4 644.2 2587.27 666.733 2591 692.6L2492.6 710.2C2490.2 691.8 2481.8 677.267 2467.4 666.6C2453.27 655.933 2434.33 649.933 2410.6 648.6C2387.93 647.267 2369.67 650.733 2355.8 659C2341.93 667 2335 678.333 2335 693C2335 701.267 2337.8 708.333 2343.4 714.2C2349 720.067 2360.2 725.933 2377 731.8C2394.07 737.667 2419.4 744.867 2453 753.4C2487.4 762.2 2514.87 772.333 2535.4 783.8C2556.2 795 2571.13 808.467 2580.2 824.2C2589.53 839.933 2594.2 859 2594.2 881.4C2594.2 924.867 2578.33 959 2546.6 983.8C2515.13 1008.6 2471.53 1021 2415.8 1021ZM2889.41 1021C2847.28 1021 2811.95 1011 2783.41 991C2754.88 971 2733.41 943.8 2719.01 909.4C2704.61 874.733 2697.41 835.933 2697.41 793C2697.41 749.533 2704.61 710.6 2719.01 676.2C2733.41 641.8 2754.48 614.733 2782.21 595C2810.21 575 2844.75 565 2885.81 565C2926.61 565 2961.95 575 2991.81 595C3021.95 614.733 3045.28 641.8 3061.81 676.2C3078.35 710.333 3086.61 749.267 3086.61 793C3086.61 836.2 3078.48 875 3062.21 909.4C3045.95 943.8 3023.01 971 2993.41 991C2963.81 1011 2929.15 1021 2889.41 1021ZM2681.01 1201V577H2766.21V880.2H2778.21V1201H2681.01ZM2874.61 934.6C2899.68 934.6 2920.35 928.333 2936.61 915.8C2952.88 903.267 2964.88 886.333 2972.61 865C2980.61 843.4 2984.61 819.4 2984.61 793C2984.61 766.867 2980.61 743.133 2972.61 721.8C2964.61 700.2 2952.21 683.133 2935.41 670.6C2918.61 657.8 2897.28 651.4 2871.41 651.4C2846.88 651.4 2826.88 657.4 2811.41 669.4C2795.95 681.133 2784.48 697.667 2777.01 719C2769.81 740.067 2766.21 764.733 2766.21 793C2766.21 821 2769.81 845.667 2777.01 867C2784.48 888.333 2796.08 905 2811.81 917C2827.81 928.733 2848.75 934.6 2874.61 934.6ZM3295.58 1021C3264.38 1021 3237.98 1015.13 3216.38 1003.4C3194.78 991.4 3178.38 975.533 3167.18 955.8C3156.25 936.067 3150.78 914.333 3150.78 890.6C3150.78 869.8 3154.25 851.133 3161.18 834.6C3168.11 817.8 3178.78 803.4 3193.18 791.4C3207.58 779.133 3226.25 769.133 3249.18 761.4C3266.51 755.8 3286.78 750.733 3309.98 746.2C3333.45 741.667 3358.78 737.533 3385.98 733.8C3413.45 729.8 3442.11 725.533 3471.98 721L3437.58 740.6C3437.85 710.733 3431.18 688.733 3417.58 674.6C3403.98 660.467 3381.05 653.4 3348.78 653.4C3329.31 653.4 3310.51 657.933 3292.38 667C3274.25 676.067 3261.58 691.667 3254.38 713.8L3166.38 686.2C3177.05 649.667 3197.31 620.333 3227.18 598.2C3257.31 576.067 3297.85 565 3348.78 565C3387.18 565 3420.91 571.267 3449.98 583.8C3479.31 596.333 3501.05 616.867 3515.18 645.4C3522.91 660.6 3527.58 676.2 3529.18 692.2C3530.78 707.933 3531.58 725.133 3531.58 743.8V1009H3447.18V915.4L3461.18 930.6C3441.71 961.8 3418.91 984.733 3392.78 999.4C3366.91 1013.8 3334.51 1021 3295.58 1021ZM3314.78 944.2C3336.65 944.2 3355.31 940.333 3370.78 932.6C3386.25 924.867 3398.51 915.4 3407.58 904.2C3416.91 893 3423.18 882.467 3426.38 872.6C3431.45 860.333 3434.25 846.333 3434.78 830.6C3435.58 814.6 3435.98 801.667 3435.98 791.8L3465.58 800.6C3436.51 805.133 3411.58 809.133 3390.78 812.6C3369.98 816.067 3352.11 819.4 3337.18 822.6C3322.25 825.533 3309.05 828.867 3297.58 832.6C3286.38 836.6 3276.91 841.267 3269.18 846.6C3261.45 851.933 3255.45 858.067 3251.18 865C3247.18 871.933 3245.18 880.067 3245.18 889.4C3245.18 900.067 3247.85 909.533 3253.18 917.8C3258.51 925.8 3266.25 932.2 3276.38 937C3286.78 941.8 3299.58 944.2 3314.78 944.2ZM3756.52 1021C3725.32 1021 3698.92 1015.13 3677.32 1003.4C3655.72 991.4 3639.32 975.533 3628.12 955.8C3617.19 936.067 3611.72 914.333 3611.72 890.6C3611.72 869.8 3615.19 851.133 3622.12 834.6C3629.05 817.8 3639.72 803.4 3654.12 791.4C3668.52 779.133 3687.19 769.133 3710.12 761.4C3727.45 755.8 3747.72 750.733 3770.92 746.2C3794.39 741.667 3819.72 737.533 3846.92 733.8C3874.39 729.8 3903.05 725.533 3932.92 721L3898.52 740.6C3898.79 710.733 3892.12 688.733 3878.52 674.6C3864.92 660.467 3841.99 653.4 3809.72 653.4C3790.25 653.4 3771.45 657.933 3753.32 667C3735.19 676.067 3722.52 691.667 3715.32 713.8L3627.32 686.2C3637.99 649.667 3658.25 620.333 3688.12 598.2C3718.25 576.067 3758.79 565 3809.72 565C3848.12 565 3881.85 571.267 3910.92 583.8C3940.25 596.333 3961.99 616.867 3976.12 645.4C3983.85 660.6 3988.52 676.2 3990.12 692.2C3991.72 707.933 3992.52 725.133 3992.52 743.8V1009H3908.12V915.4L3922.12 930.6C3902.65 961.8 3879.85 984.733 3853.72 999.4C3827.85 1013.8 3795.45 1021 3756.52 1021ZM3775.72 944.2C3797.59 944.2 3816.25 940.333 3831.72 932.6C3847.19 924.867 3859.45 915.4 3868.52 904.2C3877.85 893 3884.12 882.467 3887.32 872.6C3892.39 860.333 3895.19 846.333 3895.72 830.6C3896.52 814.6 3896.92 801.667 3896.92 791.8L3926.52 800.6C3897.45 805.133 3872.52 809.133 3851.72 812.6C3830.92 816.067 3813.05 819.4 3798.12 822.6C3783.19 825.533 3769.99 828.867 3758.52 832.6C3747.32 836.6 3737.85 841.267 3730.12 846.6C3722.39 851.933 3716.39 858.067 3712.12 865C3708.12 871.933 3706.12 880.067 3706.12 889.4C3706.12 900.067 3708.79 909.533 3714.12 917.8C3719.45 925.8 3727.19 932.2 3737.32 937C3747.72 941.8 3760.52 944.2 3775.72 944.2ZM4096.66 1009V577H4181.86V682.2L4171.46 668.6C4176.79 654.2 4183.86 641.133 4192.66 629.4C4201.72 617.4 4212.52 607.533 4225.06 599.8C4235.72 592.6 4247.46 587 4260.26 583C4273.32 578.733 4286.66 576.2 4300.26 575.4C4313.86 574.333 4327.06 574.867 4339.86 577V667C4327.06 663.267 4312.26 662.067 4295.46 663.4C4278.92 664.733 4263.99 669.4 4250.66 677.4C4237.32 684.6 4226.39 693.8 4217.86 705C4209.59 716.2 4203.46 729 4199.46 743.4C4195.46 757.533 4193.46 772.867 4193.46 789.4V1009H4096.66ZM4415.39 1009L4416.19 433H4513.79V785L4671.79 577H4792.19L4624.59 793L4806.59 1009H4678.99L4513.79 801V1009H4415.39ZM5035.24 1021C4991.51 1021 4953.11 1011.53 4920.04 992.6C4886.98 973.667 4861.11 947.4 4842.44 913.8C4824.04 880.2 4814.84 841.533 4814.84 797.8C4814.84 750.6 4823.91 709.667 4842.04 675C4860.18 640.067 4885.38 613 4917.64 593.8C4949.91 574.6 4987.24 565 5029.64 565C5074.44 565 5112.44 575.533 5143.64 596.6C5175.11 617.4 5198.44 646.867 5213.64 685C5228.84 723.133 5234.58 768.067 5230.84 819.8H5135.24V784.6C5134.98 737.667 5126.71 703.4 5110.44 681.8C5094.18 660.2 5068.58 649.4 5033.64 649.4C4994.18 649.4 4964.84 661.667 4945.64 686.2C4926.44 710.467 4916.84 746.067 4916.84 793C4916.84 836.733 4926.44 870.6 4945.64 894.6C4964.84 918.6 4992.84 930.6 5029.64 930.6C5053.38 930.6 5073.78 925.4 5090.84 915C5108.18 904.333 5121.51 889 5130.84 869L5226.04 897.8C5209.51 936.733 5183.91 967 5149.24 988.6C5114.84 1010.2 5076.84 1021 5035.24 1021ZM4886.44 819.8V747H5183.64V819.8H4886.44Z" fill="#FF0000"/>
<path d="M2681 1192H2778V1392H2681V1192Z" fill="#FF0000"/>
<path d="M4416 243H4514V443H4416V243Z" fill="#FF0000"/>
<defs>
<linearGradient id="paint0_linear_1920_45" x1="1016.1" y1="1400.6" x2="2634.1" y2="1400.6" gradientUnits="userSpaceOnUse">
<stop stop-color="#FFD200"/>
<stop offset="0.5" stop-color="#FF0000"/>
<stop offset="1" stop-color="#FFD200"/>
</linearGradient>
<linearGradient id="paint1_linear_1920_45" x1="1046.05" y1="244.052" x2="2190.15" y2="1388.15" gradientUnits="userSpaceOnUse">
<stop stop-color="#FFD200"/>
<stop offset="0.5" stop-color="#FF0000"/>
<stop offset="1" stop-color="#FFD200"/>
</linearGradient>
<linearGradient id="paint2_linear_1920_45" x1="3279.1" y1="42.5" x2="1661.1" y2="42.5" gradientUnits="userSpaceOnUse">
<stop stop-color="#FFD200"/>
<stop offset="0.519231" stop-color="#FF0000"/>
<stop offset="1" stop-color="#FFD200"/>
</linearGradient>
</defs>
</svg>
