<svg xmlns="http://www.w3.org/2000/svg" viewBox="0 0 20 20" fill="currentColor">
  <path fill-rule="evenodd" d="M18 10a8 8 0 11-16 0 8 8 0 0116 0zm-1.5 0a6.5 6.5 0 11-13 0 6.5 6.5 0 0113 0zM10 4.5c-1.215 0-2.417.055-3.585.162C7.234 6.219 7.75 8.043 7.75 10s-.516 3.781-1.335 5.338A6.5 6.5 0 0110 4.5zm0 11c1.215 0 2.417-.055 3.585-.162C12.766 13.781 12.25 11.957 12.25 10s.516-3.781 1.335-5.338A6.5 6.5 0 0110 15.5zm0-11c-.83 0-1.5 2.462-1.5 5.5s.67 5.5 1.5 5.5 1.5-2.462 1.5-5.5-.67-5.5-1.5-5.5z" clip-rule="evenodd"/>
</svg>
