<svg width="4030" height="1592" viewBox="0 0 4030 1592" fill="none" xmlns="http://www.w3.org/2000/svg">
<path d="M1731.9 896.699C1692.5 896.699 1660.4 887.999 1635.6 870.599C1610.8 853.199 1595.6 828.699 1590 797.099L1654.2 787.199C1658.2 803.999 1667.4 817.299 1681.8 827.099C1696.4 836.699 1714.5 841.499 1736.1 841.499C1755.7 841.499 1771 837.499 1782 829.499C1793.2 821.499 1798.8 810.499 1798.8 796.499C1798.8 788.299 1796.8 781.699 1792.8 776.699C1789 771.499 1780.9 766.599 1768.5 761.999C1756.1 757.399 1737.2 751.699 1711.8 744.899C1684 737.699 1661.9 729.999 1645.5 721.799C1629.3 713.399 1617.7 703.699 1610.7 692.699C1603.9 681.499 1600.5 667.999 1600.5 652.199C1600.5 632.599 1605.7 615.499 1616.1 600.899C1626.5 586.299 1641.1 574.999 1659.9 566.999C1678.9 558.999 1701.1 554.999 1726.5 554.999C1751.3 554.999 1773.4 558.899 1792.8 566.699C1812.2 574.499 1827.9 585.599 1839.9 599.999C1851.9 614.199 1859.1 630.899 1861.5 650.099L1797.3 661.799C1795.1 646.199 1787.8 633.899 1775.4 624.899C1763 615.899 1746.9 610.999 1727.1 610.199C1708.1 609.399 1692.7 612.599 1680.9 619.799C1669.1 626.799 1663.2 636.499 1663.2 648.899C1663.2 656.099 1665.4 662.199 1669.8 667.199C1674.4 672.199 1683.2 676.999 1696.2 681.599C1709.2 686.199 1728.4 691.699 1753.8 698.099C1781 705.099 1802.6 712.899 1818.6 721.499C1834.6 729.899 1846 739.999 1852.8 751.799C1859.8 763.399 1863.3 777.499 1863.3 794.099C1863.3 826.099 1851.6 851.199 1828.2 869.399C1805 887.599 1772.9 896.699 1731.9 896.699ZM2081.78 896.999C2050.78 896.999 2024.78 889.499 2003.78 874.499C1982.78 859.299 1966.88 838.799 1956.08 812.999C1945.28 787.199 1939.88 758.099 1939.88 725.699C1939.88 693.299 1945.18 664.199 1955.78 638.399C1966.58 612.599 1982.38 592.299 2003.18 577.499C2024.18 562.499 2049.98 554.999 2080.58 554.999C2110.98 554.999 2137.18 562.499 2159.18 577.499C2181.38 592.299 2198.48 612.599 2210.48 638.399C2222.48 663.999 2228.48 693.099 2228.48 725.699C2228.48 758.099 2222.48 787.299 2210.48 813.299C2198.68 839.099 2181.78 859.499 2159.78 874.499C2137.98 889.499 2111.98 896.999 2081.78 896.999ZM1929.38 1032V563.999H1985.18V797.099H1992.38V1032H1929.38ZM2073.08 840.299C2093.08 840.299 2109.58 835.199 2122.58 824.999C2135.78 814.799 2145.58 801.099 2151.98 783.899C2158.58 766.499 2161.88 747.099 2161.88 725.699C2161.88 704.499 2158.58 685.299 2151.98 668.099C2145.58 650.899 2135.68 637.199 2122.28 626.999C2108.88 616.799 2091.78 611.699 2070.98 611.699C2051.38 611.699 2035.18 616.499 2022.38 626.099C2009.78 635.699 2000.38 649.099 1994.18 666.299C1988.18 683.499 1985.18 703.299 1985.18 725.699C1985.18 748.099 1988.18 767.899 1994.18 785.099C2000.18 802.299 2009.68 815.799 2022.68 825.599C2035.68 835.399 2052.48 840.299 2073.08 840.299ZM2386.22 896.999C2362.22 896.999 2342.12 892.599 2325.92 883.799C2309.72 874.799 2297.42 862.999 2289.02 848.399C2280.82 833.599 2276.72 817.399 2276.72 799.799C2276.72 783.399 2279.62 768.999 2285.42 756.599C2291.22 744.199 2299.82 733.699 2311.22 725.099C2322.62 716.299 2336.62 709.199 2353.22 703.799C2367.62 699.599 2383.92 695.899 2402.12 692.699C2420.32 689.499 2439.42 686.499 2459.42 683.699C2479.62 680.899 2499.62 678.099 2519.42 675.299L2496.62 687.899C2497.02 662.499 2491.62 643.699 2480.42 631.499C2469.42 619.099 2450.42 612.899 2423.42 612.899C2406.42 612.899 2390.82 616.899 2376.62 624.899C2362.42 632.699 2352.52 645.699 2346.92 663.899L2288.42 645.899C2296.42 618.099 2311.62 595.999 2334.02 579.599C2356.62 563.199 2386.62 554.999 2424.02 554.999C2453.02 554.999 2478.22 559.999 2499.62 569.999C2521.22 579.799 2537.02 595.399 2547.02 616.799C2552.22 627.399 2555.42 638.599 2556.62 650.399C2557.82 662.199 2558.42 674.899 2558.42 688.499V887.999H2502.92V813.899L2513.72 823.499C2500.32 848.299 2483.22 866.799 2462.42 878.999C2441.82 890.999 2416.42 896.999 2386.22 896.999ZM2397.32 845.699C2415.12 845.699 2430.42 842.599 2443.22 836.399C2456.02 829.999 2466.32 821.899 2474.12 812.099C2481.92 802.299 2487.02 792.099 2489.42 781.499C2492.82 771.899 2494.72 761.099 2495.12 749.099C2495.72 737.099 2496.02 727.499 2496.02 720.299L2516.42 727.799C2496.62 730.799 2478.62 733.499 2462.42 735.899C2446.22 738.299 2431.52 740.699 2418.32 743.099C2405.32 745.299 2393.72 747.999 2383.52 751.199C2374.92 754.199 2367.22 757.799 2360.42 761.999C2353.82 766.199 2348.52 771.299 2344.52 777.299C2340.72 783.299 2338.82 790.599 2338.82 799.199C2338.82 807.599 2340.92 815.399 2345.12 822.599C2349.32 829.599 2355.72 835.199 2364.32 839.399C2372.92 843.599 2383.92 845.699 2397.32 845.699ZM2727.82 896.999C2703.82 896.999 2683.72 892.599 2667.52 883.799C2651.32 874.799 2639.02 862.999 2630.62 848.399C2622.42 833.599 2618.32 817.399 2618.32 799.799C2618.32 783.399 2621.22 768.999 2627.02 756.599C2632.82 744.199 2641.42 733.699 2652.82 725.099C2664.22 716.299 2678.22 709.199 2694.82 703.799C2709.22 699.599 2725.52 695.899 2743.72 692.699C2761.92 689.499 2781.02 686.499 2801.02 683.699C2821.22 680.899 2841.22 678.099 2861.02 675.299L2838.22 687.899C2838.62 662.499 2833.22 643.699 2822.02 631.499C2811.02 619.099 2792.02 612.899 2765.02 612.899C2748.02 612.899 2732.42 616.899 2718.22 624.899C2704.02 632.699 2694.12 645.699 2688.52 663.899L2630.02 645.899C2638.02 618.099 2653.22 595.999 2675.62 579.599C2698.22 563.199 2728.22 554.999 2765.62 554.999C2794.62 554.999 2819.82 559.999 2841.22 569.999C2862.82 579.799 2878.62 595.399 2888.62 616.799C2893.82 627.399 2897.02 638.599 2898.22 650.399C2899.42 662.199 2900.02 674.899 2900.02 688.499V887.999H2844.52V813.899L2855.32 823.499C2841.92 848.299 2824.82 866.799 2804.02 878.999C2783.42 890.999 2758.02 896.999 2727.82 896.999ZM2738.92 845.699C2756.72 845.699 2772.02 842.599 2784.82 836.399C2797.62 829.999 2807.92 821.899 2815.72 812.099C2823.52 802.299 2828.62 792.099 2831.02 781.499C2834.42 771.899 2836.32 761.099 2836.72 749.099C2837.32 737.099 2837.62 727.499 2837.62 720.299L2858.02 727.799C2838.22 730.799 2820.22 733.499 2804.02 735.899C2787.82 738.299 2773.12 740.699 2759.92 743.099C2746.92 745.299 2735.32 747.999 2725.12 751.199C2716.52 754.199 2708.82 757.799 2702.02 761.999C2695.42 766.199 2690.12 771.299 2686.12 777.299C2682.32 783.299 2680.42 790.599 2680.42 799.199C2680.42 807.599 2682.52 815.399 2686.72 822.599C2690.92 829.599 2697.32 835.199 2705.92 839.399C2714.52 843.599 2725.52 845.699 2738.92 845.699ZM2977.92 887.999V563.999H3033.72V642.599L3025.92 632.399C3029.92 621.999 3035.12 612.499 3041.52 603.899C3047.92 595.099 3055.32 587.899 3063.72 582.299C3071.92 576.299 3081.02 571.699 3091.02 568.499C3101.22 565.099 3111.62 563.099 3122.22 562.499C3132.82 561.699 3143.02 562.199 3152.82 563.999V622.799C3142.22 619.999 3130.42 619.199 3117.42 620.399C3104.62 621.599 3092.82 625.699 3082.02 632.699C3071.82 639.299 3063.72 647.299 3057.72 656.699C3051.92 666.099 3047.72 676.599 3045.12 688.199C3042.52 699.599 3041.22 711.699 3041.22 724.499V887.999H2977.92ZM3209.65 887.999L3209.95 455.999H3273.55V719.999L3400.75 563.999H3480.55L3346.15 725.999L3494.35 887.999H3409.15L3273.55 731.999V887.999H3209.65ZM3662.44 896.999C3630.24 896.999 3601.94 889.999 3577.54 875.999C3553.34 861.799 3534.44 842.099 3520.84 816.899C3507.44 791.499 3500.74 762.099 3500.74 728.699C3500.74 693.299 3507.34 662.599 3520.54 636.599C3533.94 610.599 3552.54 590.499 3576.34 576.299C3600.14 562.099 3627.84 554.999 3659.44 554.999C3692.44 554.999 3720.54 562.699 3743.74 578.099C3766.94 593.299 3784.24 614.999 3795.64 643.199C3807.24 671.399 3811.84 704.899 3809.44 743.699H3746.74V720.899C3746.34 683.299 3739.14 655.499 3725.14 637.499C3711.34 619.499 3690.24 610.499 3661.84 610.499C3630.44 610.499 3606.84 620.399 3591.04 640.199C3575.24 659.999 3567.34 688.599 3567.34 725.999C3567.34 761.599 3575.24 789.199 3591.04 808.799C3606.84 828.199 3629.64 837.899 3659.44 837.899C3679.04 837.899 3695.94 833.499 3710.14 824.699C3724.54 815.699 3735.74 802.899 3743.74 786.299L3805.24 805.799C3792.64 834.799 3773.54 857.299 3747.94 873.299C3722.34 889.099 3693.84 896.999 3662.44 896.999ZM3546.94 743.699V694.799H3778.24V743.699H3546.94Z" fill="white"/>
<rect x="3210" y="329.999" width="64" height="129" fill="white"/>
<rect x="1929" y="1032" width="63" height="129" fill="white"/>
<path d="M775.745 0.000414431C778.516 731.755 782.682 735.724 1551.49 738.364C782.682 741.003 778.516 744.962 775.745 1476.72C772.974 744.962 768.808 741.003 0 738.364C768.808 735.724 772.974 731.755 775.745 0.000414431Z" fill="#00A4EF"/>
<path d="M1449.56 738.363C1451.17 1161.36 1453.58 1163.65 1898 1165.18C1453.58 1166.7 1451.17 1168.99 1449.56 1592C1447.96 1168.99 1445.55 1166.7 1001.14 1165.18C1445.55 1163.65 1447.96 1161.36 1449.56 738.363Z" fill="#FFB900"/>
<path d="M1302.87 132.141C1303.77 369.593 1305.12 370.872 1554.58 371.731C1305.12 372.591 1303.77 373.87 1302.87 611.322C1301.97 373.87 1300.62 372.591 1051.15 371.731C1300.62 370.872 1301.97 369.593 1302.87 132.141Z" fill="#F25022"/>
</svg>
