<svg width="4030" height="1592" viewBox="0 0 4030 1592" fill="none" xmlns="http://www.w3.org/2000/svg">
<path d="M1731.9 896.7C1692.5 896.7 1660.4 888 1635.6 870.6C1610.8 853.2 1595.6 828.7 1590 797.1L1654.2 787.2C1658.2 804 1667.4 817.3 1681.8 827.1C1696.4 836.7 1714.5 841.5 1736.1 841.5C1755.7 841.5 1771 837.5 1782 829.5C1793.2 821.5 1798.8 810.5 1798.8 796.5C1798.8 788.3 1796.8 781.7 1792.8 776.7C1789 771.5 1780.9 766.6 1768.5 762C1756.1 757.4 1737.2 751.7 1711.8 744.9C1684 737.7 1661.9 730 1645.5 721.8C1629.3 713.4 1617.7 703.7 1610.7 692.7C1603.9 681.5 1600.5 668 1600.5 652.2C1600.5 632.6 1605.7 615.5 1616.1 600.9C1626.5 586.3 1641.1 575 1659.9 567C1678.9 559 1701.1 555 1726.5 555C1751.3 555 1773.4 558.9 1792.8 566.7C1812.2 574.5 1827.9 585.6 1839.9 600C1851.9 614.2 1859.1 630.9 1861.5 650.1L1797.3 661.8C1795.1 646.2 1787.8 633.9 1775.4 624.9C1763 615.9 1746.9 611 1727.1 610.2C1708.1 609.4 1692.7 612.6 1680.9 619.8C1669.1 626.8 1663.2 636.5 1663.2 648.9C1663.2 656.1 1665.4 662.2 1669.8 667.2C1674.4 672.2 1683.2 677 1696.2 681.6C1709.2 686.2 1728.4 691.7 1753.8 698.1C1781 705.1 1802.6 712.9 1818.6 721.5C1834.6 729.9 1846 740 1852.8 751.8C1859.8 763.4 1863.3 777.5 1863.3 794.1C1863.3 826.1 1851.6 851.2 1828.2 869.4C1805 887.6 1772.9 896.7 1731.9 896.7ZM2081.78 897C2050.78 897 2024.78 889.5 2003.78 874.5C1982.78 859.3 1966.88 838.8 1956.08 813C1945.28 787.2 1939.88 758.1 1939.88 725.7C1939.88 693.3 1945.18 664.2 1955.78 638.4C1966.58 612.6 1982.38 592.3 2003.18 577.5C2024.18 562.5 2049.98 555 2080.58 555C2110.98 555 2137.18 562.5 2159.18 577.5C2181.38 592.3 2198.48 612.6 2210.48 638.4C2222.48 664 2228.48 693.1 2228.48 725.7C2228.48 758.1 2222.48 787.3 2210.48 813.3C2198.68 839.1 2181.78 859.5 2159.78 874.5C2137.98 889.5 2111.98 897 2081.78 897ZM1929.38 1032V564H1985.18V797.1H1992.38V1032H1929.38ZM2073.08 840.3C2093.08 840.3 2109.58 835.2 2122.58 825C2135.78 814.8 2145.58 801.1 2151.98 783.9C2158.58 766.5 2161.88 747.1 2161.88 725.7C2161.88 704.5 2158.58 685.3 2151.98 668.1C2145.58 650.9 2135.68 637.2 2122.28 627C2108.88 616.8 2091.78 611.7 2070.98 611.7C2051.38 611.7 2035.18 616.5 2022.38 626.1C2009.78 635.7 2000.38 649.1 1994.18 666.3C1988.18 683.5 1985.18 703.3 1985.18 725.7C1985.18 748.1 1988.18 767.9 1994.18 785.1C2000.18 802.3 2009.68 815.8 2022.68 825.6C2035.68 835.4 2052.48 840.3 2073.08 840.3ZM2386.22 897C2362.22 897 2342.12 892.6 2325.92 883.8C2309.72 874.8 2297.42 863 2289.02 848.4C2280.82 833.6 2276.72 817.4 2276.72 799.8C2276.72 783.4 2279.62 769 2285.42 756.6C2291.22 744.2 2299.82 733.7 2311.22 725.1C2322.62 716.3 2336.62 709.2 2353.22 703.8C2367.62 699.6 2383.92 695.9 2402.12 692.7C2420.32 689.5 2439.42 686.5 2459.42 683.7C2479.62 680.9 2499.62 678.1 2519.42 675.3L2496.62 687.9C2497.02 662.5 2491.62 643.7 2480.42 631.5C2469.42 619.1 2450.42 612.9 2423.42 612.9C2406.42 612.9 2390.82 616.9 2376.62 624.9C2362.42 632.7 2352.52 645.7 2346.92 663.9L2288.42 645.9C2296.42 618.1 2311.62 596 2334.02 579.6C2356.62 563.2 2386.62 555 2424.02 555C2453.02 555 2478.22 560 2499.62 570C2521.22 579.8 2537.02 595.4 2547.02 616.8C2552.22 627.4 2555.42 638.6 2556.62 650.4C2557.82 662.2 2558.42 674.9 2558.42 688.5V888H2502.92V813.9L2513.72 823.5C2500.32 848.3 2483.22 866.8 2462.42 879C2441.82 891 2416.42 897 2386.22 897ZM2397.32 845.7C2415.12 845.7 2430.42 842.6 2443.22 836.4C2456.02 830 2466.32 821.9 2474.12 812.1C2481.92 802.3 2487.02 792.1 2489.42 781.5C2492.82 771.9 2494.72 761.1 2495.12 749.1C2495.72 737.1 2496.02 727.5 2496.02 720.3L2516.42 727.8C2496.62 730.8 2478.62 733.5 2462.42 735.9C2446.22 738.3 2431.52 740.7 2418.32 743.1C2405.32 745.3 2393.72 748 2383.52 751.2C2374.92 754.2 2367.22 757.8 2360.42 762C2353.82 766.2 2348.52 771.3 2344.52 777.3C2340.72 783.3 2338.82 790.6 2338.82 799.2C2338.82 807.6 2340.92 815.4 2345.12 822.6C2349.32 829.6 2355.72 835.2 2364.32 839.4C2372.92 843.6 2383.92 845.7 2397.32 845.7ZM2727.82 897C2703.82 897 2683.72 892.6 2667.52 883.8C2651.32 874.8 2639.02 863 2630.62 848.4C2622.42 833.6 2618.32 817.4 2618.32 799.8C2618.32 783.4 2621.22 769 2627.02 756.6C2632.82 744.2 2641.42 733.7 2652.82 725.1C2664.22 716.3 2678.22 709.2 2694.82 703.8C2709.22 699.6 2725.52 695.9 2743.72 692.7C2761.92 689.5 2781.02 686.5 2801.02 683.7C2821.22 680.9 2841.22 678.1 2861.02 675.3L2838.22 687.9C2838.62 662.5 2833.22 643.7 2822.02 631.5C2811.02 619.1 2792.02 612.9 2765.02 612.9C2748.02 612.9 2732.42 616.9 2718.22 624.9C2704.02 632.7 2694.12 645.7 2688.52 663.9L2630.02 645.9C2638.02 618.1 2653.22 596 2675.62 579.6C2698.22 563.2 2728.22 555 2765.62 555C2794.62 555 2819.82 560 2841.22 570C2862.82 579.8 2878.62 595.4 2888.62 616.8C2893.82 627.4 2897.02 638.6 2898.22 650.4C2899.42 662.2 2900.02 674.9 2900.02 688.5V888H2844.52V813.9L2855.32 823.5C2841.92 848.3 2824.82 866.8 2804.02 879C2783.42 891 2758.02 897 2727.82 897ZM2738.92 845.7C2756.72 845.7 2772.02 842.6 2784.82 836.4C2797.62 830 2807.92 821.9 2815.72 812.1C2823.52 802.3 2828.62 792.1 2831.02 781.5C2834.42 771.9 2836.32 761.1 2836.72 749.1C2837.32 737.1 2837.62 727.5 2837.62 720.3L2858.02 727.8C2838.22 730.8 2820.22 733.5 2804.02 735.9C2787.82 738.3 2773.12 740.7 2759.92 743.1C2746.92 745.3 2735.32 748 2725.12 751.2C2716.52 754.2 2708.82 757.8 2702.02 762C2695.42 766.2 2690.12 771.3 2686.12 777.3C2682.32 783.3 2680.42 790.6 2680.42 799.2C2680.42 807.6 2682.52 815.4 2686.72 822.6C2690.92 829.6 2697.32 835.2 2705.92 839.4C2714.52 843.6 2725.52 845.7 2738.92 845.7ZM2977.92 888V564H3033.72V642.6L3025.92 632.4C3029.92 622 3035.12 612.5 3041.52 603.9C3047.92 595.1 3055.32 587.9 3063.72 582.3C3071.92 576.3 3081.02 571.7 3091.02 568.5C3101.22 565.1 3111.62 563.1 3122.22 562.5C3132.82 561.7 3143.02 562.2 3152.82 564V622.8C3142.22 620 3130.42 619.2 3117.42 620.4C3104.62 621.6 3092.82 625.7 3082.02 632.7C3071.82 639.3 3063.72 647.3 3057.72 656.7C3051.92 666.1 3047.72 676.6 3045.12 688.2C3042.52 699.6 3041.22 711.7 3041.22 724.5V888H2977.92ZM3209.65 888L3209.95 456H3273.55V720L3400.75 564H3480.55L3346.15 726L3494.35 888H3409.15L3273.55 732V888H3209.65ZM3662.44 897C3630.24 897 3601.94 890 3577.54 876C3553.34 861.8 3534.44 842.1 3520.84 816.9C3507.44 791.5 3500.74 762.1 3500.74 728.7C3500.74 693.3 3507.34 662.6 3520.54 636.6C3533.94 610.6 3552.54 590.5 3576.34 576.3C3600.14 562.1 3627.84 555 3659.44 555C3692.44 555 3720.54 562.7 3743.74 578.1C3766.94 593.3 3784.24 615 3795.64 643.2C3807.24 671.4 3811.84 704.9 3809.44 743.7H3746.74V720.9C3746.34 683.3 3739.14 655.5 3725.14 637.5C3711.34 619.5 3690.24 610.5 3661.84 610.5C3630.44 610.5 3606.84 620.4 3591.04 640.2C3575.24 660 3567.34 688.6 3567.34 726C3567.34 761.6 3575.24 789.2 3591.04 808.8C3606.84 828.2 3629.64 837.9 3659.44 837.9C3679.04 837.9 3695.94 833.5 3710.14 824.7C3724.54 815.7 3735.74 802.9 3743.74 786.3L3805.24 805.8C3792.64 834.8 3773.54 857.3 3747.94 873.3C3722.34 889.1 3693.84 897 3662.44 897ZM3546.94 743.7V694.8H3778.24V743.7H3546.94Z" fill="black"/>
<rect x="3210" y="330" width="64" height="129" fill="black"/>
<rect x="1929" y="1032" width="63" height="129" fill="black"/>
<path d="M775.745 0.000414431C778.516 731.755 782.682 735.724 1551.49 738.364C782.682 741.003 778.516 744.962 775.745 1476.72C772.974 744.962 768.808 741.003 0 738.364C768.808 735.724 772.974 731.755 775.745 0.000414431Z" fill="#00A4EF"/>
<path d="M1449.56 738.363C1451.17 1161.36 1453.58 1163.65 1898 1165.18C1453.58 1166.7 1451.17 1168.99 1449.56 1592C1447.96 1168.99 1445.55 1166.7 1001.14 1165.18C1445.55 1163.65 1447.96 1161.36 1449.56 738.363Z" fill="#FFB900"/>
<path d="M1302.87 132.141C1303.77 369.593 1305.12 370.872 1554.58 371.731C1305.12 372.591 1303.77 373.87 1302.87 611.322C1301.97 373.87 1300.62 372.591 1051.15 371.731C1300.62 370.872 1301.97 369.593 1302.87 132.141Z" fill="#F25022"/>
</svg>
